<svg width="20" height="20" fill="none" xmlns="http://www.w3.org/2000/svg"><path d="M10 .3125C4.6481.3125.3125 4.6487.3125 10c0 5.3512 4.3362 9.6875 9.6875 9.6875 5.3519 0 9.6875-4.3363 9.6875-9.6875 0-5.3513-4.3363-9.6875-9.6875-9.6875zm4.7581 6.6369l-1.59 7.4925c-.1175.5312-.4337.66-.875.41l-2.4219-1.785-1.168 1.125c-.1288.1287-.2382.2381-.4882.2381l.1719-2.465L12.875 7.91c.1956-.1719-.0431-.2694-.3013-.0975l-5.5468 3.4919-2.3906-.7463c-.5194-.1637-.5313-.5194.1093-.7693l9.34-3.602c.4338-.1562.8125.1057.6719.762l.0006.0006z" fill="#fff"/></svg>