<svg width="111" height="33" fill="none" xmlns="http://www.w3.org/2000/svg"><path d="M107.616 0H3.3842C1.5152 0 0 1.5076 0 3.3674v26.2653C0 31.4924 1.5151 33 3.3841 33H107.616c1.869 0 3.384-1.5076 3.384-3.3673V3.3674C111 1.5076 109.485 0 107.616 0z" fill="#295091" fill-opacity=".19"/><path fill-rule="evenodd" clip-rule="evenodd" d="M36.8059 24.2247h.9232c.0237-.2492.0813-.4795.1733-.691.0921-.2108.2132-.3926.3635-.5455a1.63 1.63 0 01.5313-.3576 1.721 1.721 0 01.6782-.13c.2741 0 .5204.0505.7384.1515.2186.1011.4041.2398.5563.4176.153.1778.2701.3872.3506.6283.0813.2411.1219.5031.1219.786v.0794c0 .2829-.0406.5456-.1219.7867-.0812.2411-.1976.4498-.3506.6263a1.6136 1.6136 0 01-.555.4135 1.7327 1.7327 0 01-.733.1495 1.7458 1.7458 0 01-.6937-.1327 1.6296 1.6296 0 01-.5388-.369 1.7772 1.7772 0 01-.3614-.5597 2.2819 2.2819 0 01-.1624-.7091h-.9199v1.6984h-.6653v-3.8946h.6653v1.6527-.0007zm1.5777.3387c0 .1947.0231.3779.0677.5509.046.1725.1151.3247.2065.4553.0913.1307.2064.2344.3431.3112.1374.0767.2978.1151.4812.1151a.9718.9718 0 00.4662-.1086.9669.9669 0 00.3569-.3177c.0907-.1306.159-.2828.2057-.4553.0467-.173.0697-.3569.0697-.5509v-.0794a2.1096 2.1096 0 00-.0697-.5489 1.43 1.43 0 00-.2078-.4566 1.0416 1.0416 0 00-.3452-.3132.9664.9664 0 00-.4825-.1172c-.1814 0-.3405.0391-.4758.1172a1.0375 1.0375 0 00-.3418.3132 1.397 1.397 0 00-.2058.4566 2.1724 2.1724 0 00-.0677.5489v.0794h-.0007zm5.4702.2445h-.4826v1.6594h-.666v-3.8946h.666v1.6486h.4332l1.3015-1.6486h.8014l-1.531 1.8722 1.6602 2.0224h-.8413l-1.3414-1.6594zm6.5111-2.2352v3.8946h-.6654v-3.3437h-1.313l-.0467 1.1159c-.0162.3697-.0481.6937-.0948.9718-.035.242-.1081.477-.2165.6964a1.0131 1.0131 0 01-.3899.4196c-.1624.0936-.3655.14-.6119.14h-.1928l.0135-.594.1435-.0033a.5161.5161 0 00.3167-.0916.6265.6265 0 00.199-.2883c.0501-.1306.088-.299.1124-.5051.025-.2067.0446-.4552.0589-.7455l.0717-1.6668h2.6153zm4.0393 3.8946a.7208.7208 0 01-.0575-.1818 3.14 3.14 0 01-.0359-.2283 1.7658 1.7658 0 01-.2098.1852 1.44 1.44 0 01-.8928.2963 1.5162 1.5162 0 01-.538-.0889c-.1611-.0606-.2979-.1414-.4116-.2451a1.0786 1.0786 0 01-.2626-.365 1.106 1.106 0 01-.0934-.4519c0-.2088.0406-.3933.1219-.5523a1.099 1.099 0 01.3492-.4014c.1509-.1077.3344-.1899.5489-.2451a2.887 2.887 0 01.7195-.0828H54.3v-.3058c0-.233-.0691-.4182-.2072-.5563-.1387-.138-.3424-.2067-.6118-.2067a1.0879 1.0879 0 00-.3398.0505c-.1029.0336-.1908.0781-.2633.1347a.6274.6274 0 00-.1698.1959.4826.4826 0 00-.061.2344h-.6653c0-.1394.0366-.2775.109-.4142.0724-.1367.176-.2599.3093-.369.134-.1091.2951-.198.4853-.2661.1895-.0686.4007-.103.6348-.103.2099 0 .4034.0269.5814.0808.1774.0539.3297.1361.4562.2452.1266.1091.2254.2458.2972.4088.071.1629.1069.3535.1069.5724v1.8103c0 .132.0115.2707.0338.4155.023.1455.0569.2708.1022.3765v.0572h-.6937zm-1.0985-.5071c.1191 0 .2315-.0168.3364-.0505a1.2453 1.2453 0 00.2856-.1313 1.0624 1.0624 0 00.2234-.1852c.0636-.0701.113-.1415.1489-.2162v-.7994h-.551c-.379 0-.6714.0599-.8765.1785a.5809.5809 0 00-.3079.5381c0 .0936.0155.1811.0473.2626a.5513.5513 0 00.1408.2108c.063.0586.1408.1057.2329.1401.0913.035.1983.0525.3201.0525zm4.9794-3.1639c.2532 0 .4785.0444.6769.1326.1976.0889.3654.2129.5042.3711.1381.1583.2437.3448.3168.5597.0724.2148.1082.4485.1082.7004v.0828c0 .2707-.0385.522-.1157.7543a1.7257 1.7257 0 01-.3398.6007 1.5763 1.5763 0 01-.5441.3974 1.7589 1.7589 0 01-.7276.1441 1.7538 1.7538 0 01-.7283-.1441 1.5767 1.5767 0 01-.5442-.3974 1.7499 1.7499 0 01-.3418-.6014 2.3286 2.3286 0 01-.1177-.7543v-.3562c0-.4411.0426-.8277.1272-1.1584a2.7206 2.7206 0 01.3574-.8425c.1543-.2303.3384-.4128.5529-.5475.2146-.1347.4522-.2263.7121-.2768a4.5752 4.5752 0 00.3722-.0795c.1097-.0283.2031-.0647.2809-.1078a.4817.4817 0 00.1767-.1602.4307.4307 0 00.0609-.2358h.5441c0 .2358-.0365.421-.1096.5577a.837.837 0 01-.2897.3206 1.3442 1.3442 0 01-.4149.171 25.3701 25.3701 0 01-.4805.1098 2.4432 2.4432 0 00-.4603.1482 1.3694 1.3694 0 00-.3885.2512c-.1144.1057-.2118.2377-.293.396-.0813.1582-.1395.3502-.176.5758a1.9195 1.9195 0 01.553-.4405 1.5217 1.5217 0 01.7282-.171zm-.1286.5468c-.1814 0-.3384.0337-.4724.099-.1333.066-.2437.1549-.331.2667a1.1205 1.1205 0 00-.1929.3886 1.6833 1.6833 0 00-.0629.4627v.0828c0 .1818.021.3556.0629.5199.0413.1644.1063.3085.195.4317a.984.984 0 00.3323.2957c.134.0727.2924.1098.4765.1098.1807 0 .3384-.0371.4738-.1098a.9704.9704 0 00.333-.2957c.0866-.1232.1516-.2673.1949-.4317a2.0485 2.0485 0 00.0643-.5199v-.0828c0-.1617-.0217-.3152-.0643-.4627a1.1264 1.1264 0 00-.197-.3886.9552.9552 0 00-.3343-.2667 1.0771 1.0771 0 00-.4779-.099zm5.2908 1.1409c0-.2829.0406-.5455.1232-.786a1.9016 1.9016 0 01.3506-.6283c.1516-.1778.3357-.3165.553-.4176.2165-.101.4602-.1515.7296-.1515.2741 0 .5211.0505.7391.1515.2179.1011.4034.2398.5563.4176.1523.1778.2694.3872.3506.6283.0812.2411.1219.5031.1219.786v.0794c0 .2829-.0407.5456-.1219.7867-.0812.2411-.1983.4498-.3506.6263a1.6136 1.6136 0 01-.555.4135c-.2166.0997-.4616.1495-.733.1495-.2721 0-.5164-.0498-.7337-.1495a1.6145 1.6145 0 01-.555-.4135 1.8651 1.8651 0 01-.3519-.6263 2.4199 2.4199 0 01-.1232-.7867v-.0794zm.6653.0794c0 .1947.0224.3779.0677.5509.0454.1725.1144.3247.2058.4553a1.031 1.031 0 00.3438.3112c.1367.0767.2978.1151.4805.1151a.9732.9732 0 00.4666-.1084.9656.9656 0 00.3571-.3179c.0901-.1306.1591-.2828.2051-.4553.0474-.173.0704-.3569.0704-.5509v-.0794a2.1097 2.1097 0 00-.0704-.5489 1.4314 1.4314 0 00-.2071-.4566 1.0416 1.0416 0 00-.3452-.3132.967.967 0 00-.4832-.1172.9386.9386 0 00-.4758.1172 1.0444 1.0444 0 00-.3418.3132 1.4093 1.4093 0 00-.2058.4566 2.1724 2.1724 0 00-.0677.5489v.0794zm7.391-1.9907v3.8946h-.6653v-3.3437h-1.3131l-.0467 1.1159c-.0162.3697-.048.6937-.0947.9718a2.3258 2.3258 0 01-.2166.6964 1.0125 1.0125 0 01-.3899.4196c-.1624.0936-.3655.14-.6118.14h-.1929l.0135-.594.1435-.0033a.5166.5166 0 00.3168-.0916.6272.6272 0 00.199-.2883c.05-.1306.0879-.299.1123-.5051.025-.2067.0447-.4552.0589-.7455l.0717-1.6668h2.6153zm4.1537 0h.6619v3.8946h-.6619v-2.84l-1.7855 2.84h-.6619v-3.8946h.6619v2.844l1.7855-2.844zm5.4735 3.8946h-.6619v-1.6628h-1.778v1.6635h-.666v-3.8953h.666v1.6884h1.778v-1.6884h.6619v3.8946zm4.1497-3.3437H83.495v3.3437h-.6653v-3.8946h2.4508v.5509zm-3.9311-9.7606a4.8786 4.8786 0 01-.1678 1.32 3.0644 3.0644 0 01-.4907 1.027 2.2873 2.2873 0 01-.7899.6688c-.3106.1596-.6653.2397-1.0633.2397-.4717 0-.8792-.0821-1.2223-.2458a2.3239 2.3239 0 01-.8508-.6775v3.267h-.7256v-8.8669h.6769l.0365.9058c.2234-.3199.5063-.5704.8474-.7516.3418-.1818.7479-.2727 1.2197-.2727.402 0 .7607.0774 1.0761.231.3138.1531.5864.3784.7953.6573.2152.2842.379.6263.4907 1.027.1117.4001.1678.8486.1678 1.347v.1239zm-.7316-.1246a4.3778 4.3778 0 00-.1191-1.0419 2.5774 2.5774 0 00-.3594-.8405 1.7478 1.7478 0 00-.6132-.5589c-.2478-.1361-.5381-.2041-.8718-.2041a2.2465 2.2465 0 00-.7005.1003 1.8063 1.8063 0 00-.9239.66 2.3835 2.3835 0 00-.2653.4647v3.0717c.0772.1617.1739.3118.2897.4499.1157.1381.2518.2579.4088.3583.1557.101.3343.1798.5333.2371.199.0572.4224.0855.6701.0855.3337 0 .6227-.068.8663-.2041a1.7565 1.7565 0 00.6065-.5623c.1604-.2391.2802-.5199.3594-.8439.0791-.3232.1191-.6728.1191-1.0472v-.1246zM83.7813 16.5h-.731V7.4082h.731V16.5zm6.1456 0a1.9887 1.9887 0 01-.0948-.4054 5.4698 5.4698 0 01-.046-.4883 2.5863 2.5863 0 01-.8961.7105 3.0158 3.0158 0 01-1.3415.3017 2.6712 2.6712 0 01-.8744-.136 1.969 1.969 0 01-.6701-.3819 1.728 1.728 0 01-.4305-.5771 1.7088 1.7088 0 01-.1523-.722c0-.3118.0691-.5926.2072-.8439a1.8622 1.8622 0 01.5976-.6397c.2599-.1752.576-.3098.9475-.4021a5.1804 5.1804 0 011.2535-.1387h1.3537v-.7287c0-.458-.1455-.8183-.4366-1.0803-.291-.2626-.714-.394-1.271-.394-.2559 0-.4914.0337-.7073.1011-.2153.0673-.4014.1596-.5577.2781-.1557.1179-.2782.2552-.3655.4108a1.0062 1.0062 0 00-.1313.5004l-.731-.0061c0-.2404.0609-.4734.1827-.6983.1219-.225.2931-.425.5144-.6008.222-.1751.488-.3165.7987-.4229.3113-.1064.6558-.1603 1.0335-.1603.3499 0 .6721.0438.9665.1306.2944.0869.5476.2169.7587.3907.2119.1737.3764.3906.4941.6512.1178.26.1767.5644.1767.9112v3.102c0 .1105.004.225.0122.3435.0081.1178.0216.2323.0399.3435.0183.1097.0393.2155.0636.3165.0244.1003.0528.1886.0853.2626v.0714h-.7804l.0007.0007zm-2.2924-.5091c.2639 0 .5089-.0324.7343-.0977.2254-.0653.4298-.1549.6126-.2694.1827-.1145.3418-.2472.4758-.3994a2.0045 2.0045 0 00.3228-.4943v-1.4089h-1.2494c-.3743 0-.7086.033-1.0031.0977a2.4798 2.4798 0 00-.7465.2815c-.2031.1219-.3587.2714-.467.4465a1.124 1.124 0 00-.1611.5953c-.0009.1674.0343.333.1032.4856.0689.1527.1699.2888.2961.3994.1286.1124.2836.2007.467.266.1828.0653.3872.0977.6153.0977zm6.907-.5092l1.9263-5.3864h.7864l-2.7919 7.4284c-.0568.1461-.1292.3098-.2166.4916a2.2064 2.2064 0 01-.3418.5091 1.8006 1.8006 0 01-.5238.3994c-.2098.1084-.4643.163-.7648.163-.0406 0-.088-.0034-.1408-.0088a4.327 4.327 0 01-.308-.0471 1.9506 1.9506 0 01-.1123-.0269l-.0068-.586c.1255.0193.2521.0309.379.0351.1943 0 .3675-.0243.5178-.0741.1503-.0492.2816-.1219.3926-.2189a1.4291 1.4291 0 00.2964-.3637c.0853-.1461.1624-.3138.2315-.5031l.3167-.8465-2.4873-6.3508h.7987l2.0487 5.3857z" fill="#295091"/><path d="M8.122 26.1845v-18.02a1.5837 1.5837 0 01.247-.8455c.1607-.253.39-.4558.6614-.585l10.5978 10.4375L9.0263 27.6122a1.5938 1.5938 0 01-.6584-.5845 1.5827 1.5827 0 01-.2458-.8432zm14.8903-5.6551l-11.5061 6.4094 9.0743-8.7551 2.4318 2.3457zm3.4661-4.3001c.3614.2949.5949.7603.5949 1.2829 0 .5152-.2261.9745-.5787 1.2702l-2.3087 1.4217-2.5272-2.6946 2.5252-2.6932 2.2945 1.413zM11.5062 7.4082l11.5061 6.4094-2.4312 2.3457-9.0749-8.7551zm39.2561 6.3979c0 1.7443-1.3672 3.0306-3.0457 3.0306-1.6786 0-3.0457-1.2863-3.0457-3.0306 0-1.7577 1.3671-3.0306 3.0457-3.0306 1.6785 0 3.0457 1.2729 3.0457 3.0306zm-1.3333 0c0-1.0903-.7919-1.8365-1.7124-1.8365-.9205 0-1.7124.7462-1.7124 1.8365 0 1.0796.7919 1.8366 1.7124 1.8366.9205 0 1.7124-.7583 1.7124-1.8366zm8.1016 0c0 1.7443-1.3672 3.0306-3.0457 3.0306-1.6786 0-3.0458-1.2863-3.0458-3.0306 0-1.7557 1.3672-3.0306 3.0458-3.0306 1.6785 0 3.0457 1.2729 3.0457 3.0306zm-1.3333 0c0-1.0903-.7919-1.8365-1.7124-1.8365-.9205 0-1.7124.7462-1.7124 1.8365 0 1.0796.7919 1.8366 1.7124 1.8366.9205 0 1.7124-.7583 1.7124-1.8366zm8.1016-2.8481v5.4282c0 2.2325-1.3841 3.1444-3.02 3.1444-1.5398 0-2.4671-.9799-2.8163-1.7813l1.2149-.4815c.2166.4916.7459 1.0728 1.6 1.0728 1.0471 0 1.6962-.6149 1.6962-1.7719v-.4351h-.0488c-.312.3671-.9137.687-1.6731.687-1.5885 0-3.0444-1.3167-3.0444-3.0104 0-1.708 1.4552-3.0347 3.0444-3.0347.7581 0 1.3598.3206 1.6731.6762h.0488V10.96h1.3252v-.002zm-1.2264 2.8515c0-1.0641-.7466-1.8426-1.6961-1.8426-.9625 0-1.7693.7785-1.7693 1.8426 0 1.054.8068 1.8211 1.7693 1.8211.9495 0 1.6961-.7678 1.6961-1.8211zm3.2569-5.7279v8.0817h-1.3537V8.0816h1.3537zm5.0356 6.7233l1.0003.6889c-.3228.493-1.1011 1.3429-2.446 1.3429-1.6677 0-2.9131-1.3307-2.9131-3.0306 0-1.8022 1.2562-3.0306 2.7682-3.0306 1.5243 0 2.2695 1.2513 2.5124 1.9282l.1341.3441-3.9243 1.6776c.3005.6082.7675.9186 1.4227.9186.6565 0 1.112-.3333 1.4457-.8391zm-3.0803-1.0904l2.6234-1.1247c-.1441-.3784-.5787-.6418-1.0897-.6418-.6551 0-1.5668.5967-1.5337 1.7665zm-28.51-1.1024v-1.1968h4.1577c.0406.2088.0616.4546.0616.722 0 .897-.2531 2.0069-1.0687 2.7976-.7926.8014-1.8071 1.2284-3.1493 1.2284-2.488 0-4.5808-1.9652-4.5808-4.3776 0-2.4123 2.0928-4.3775 4.5808-4.3775 1.3767 0 2.3574.524 3.0945 1.2062l-.8704.8438c-.5286-.4802-1.2447-.854-2.2254-.854-1.8166 0-3.238 1.4197-3.238 3.1815 0 1.7618 1.4214 3.1815 3.238 3.1815 1.179 0 1.8504-.4586 2.2802-.8755.3486-.3381.578-.8217.6687-1.4817l-2.9489.0021z" fill="#295091"/></svg>