<svg width="38" height="40" fill="none" xmlns="http://www.w3.org/2000/svg"><path d="M19 1.25C9.1628 1.25 1.1875 9.645 1.1875 20S9.1628 38.75 19 38.75 36.8125 30.355 36.8125 20 28.8372 1.25 19 1.25zM2.8227 22.3044l5.0866 1.3325c-.022.2525-.0433.5056-.0433.7825-.0018 2.0601.4899 4.0874 1.4298 5.8943l-2.5615 1.0138c-2.1203-2.5361-3.4812-5.6753-3.9116-9.0231zM19 37.1875c-4.0684 0-7.7906-1.5775-10.653-4.1788l2.1232-.8531c2.0437 2.6406 5.1074 4.3238 8.5298 4.3238 3.4224 0 6.4861-1.6832 8.5304-4.3238l2.1233.8531C26.7918 35.6094 23.0696 37.1875 19 37.1875zM9.351 24.4188c0-3.6194 2.2182-4.3463 5.7967-4.3463.6561 0 1.3211.0238 1.9725.0469a51.008 51.008 0 003.7596 0c.6531-.0231 1.3175-.0469 1.9724-.0469 3.5798 0 5.7974.7269 5.7974 4.3463 0 5.7887-4.329 10.4981-9.6496 10.4981s-9.649-4.7094-9.649-10.4981zm21.9147 6.9081l-2.5614-1.0138c.9398-1.807 1.4315-3.8343 1.4297-5.8943 0-.2769-.0208-.53-.0428-.7826l5.0861-1.3324c-.4294 3.3481-1.7904 6.4876-3.9116 9.0231zM29.567 21.52c-1.3847-3-4.9763-3.0094-6.7148-3.0094-.6715 0-1.3531.0238-2.0223.0482a49.5923 49.5923 0 01-3.6586 0 55.7332 55.7332 0 00-2.0236-.0482c-1.7385 0-5.3294.01-6.714 3.0094L2.673 20.0212 2.6719 20c0-3.6931 1.1162-7.1156 3.0067-9.9206.218.3137.579.5906.7315.45.9492-.8435 2.0633-1.4562 3.2631-1.7947a8.0394 8.0394 0 013.6785-.1635c.3443.0707.6483-1.263.2309-1.3474-2.3257-.4346-4.7222.0354-6.7432 1.3225C9.832 5.03 14.1734 2.8125 19 2.8125c4.9133 0 9.3237 2.2994 12.3191 5.9256-2.052-1.3616-4.5129-1.8682-6.9011-1.4206-.4174.0844-.1146 1.4188.2298 1.3475 2.4747-.4675 5.0213.25 6.9415 1.9581.1609.1469.5528-.1637.7647-.495 1.938 2.8874 2.9771 6.3366 2.9741 9.8719v.0206L29.567 21.52z" fill="#DC1E1E"/><path d="M22.018 12.5331c-.4536.165-.7956.185-.7374.46 1.1934 5.4825 6.0592 6.8538 9.6983 2.7356.1811-.2081-.1057-.405-.4198-.7887-2.9343 1.3219-6.8061.0306-8.5411-2.4069zM15.9832 12.5319c-1.9125 2.6875-5.8794 3.6075-8.54 2.4094-.314.3818-.602.5793-.421.7875 3.6392 4.12 8.5038 2.7468 9.6996-2.7357.057-.275-.2838-.2956-.7386-.4612z" fill="#DC1E1E"/></svg>