<svg width="38" height="39" fill="none" xmlns="http://www.w3.org/2000/svg"><path d="M0 19.4099c0 3.8152 1.1143 7.5447 3.202 10.7169 2.0878 3.1722 5.0552 5.6447 8.527 7.1047 3.4718 1.46 7.2921 1.842 10.9777 1.0977 3.6856-.7443 7.0711-2.5815 9.7283-5.2792 2.6572-2.6978 4.4668-6.1349 5.1999-9.8768.7331-3.7419.3569-7.6205-1.0812-11.1453-1.4381-3.5247-3.8733-6.5374-6.9979-8.657C26.4313 1.2513 22.7578.1199 19 .1199c-5.0391 0-9.8718 2.0324-13.435 5.65C2.0018 9.3873 0 14.2938 0 19.4098zm31.4179 10.6784L8.4821 6.8025c3.1223-2.6386 7.1032-3.9972 11.1614-3.8091 4.0582.188 7.9006 1.9092 10.7732 4.8256 2.8725 2.9164 4.5678 6.8174 4.753 10.9376.1853 4.1201-1.1529 8.1617-3.7518 11.3317zM8.4686 32.031c-3.2866-2.8335-5.3322-6.8746-5.6884-11.2372-.3562-4.3625 1.0062-8.6905 3.7884-12.0347L29.4907 32.031c-2.9393 2.5215-6.663 3.9049-10.5111 3.9049-3.848 0-7.5718-1.3834-10.511-3.9049z" fill="#000"/></svg>